<svg xmlns="http://www.w3.org/2000/svg" width="400" height="400" viewBox="0 0 400 400">
  <rect width="400" height="400" fill="#fafafa"/>
  <!-- Fiber grain lines -->
  <g opacity="0.06" stroke="#666" stroke-width="0.5" fill="none">
    <line x1="12" y1="8" x2="28" y2="9"/><line x1="55" y1="3" x2="68" y2="5"/>
    <line x1="102" y1="15" x2="120" y2="14"/><line x1="145" y1="6" x2="158" y2="8"/>
    <line x1="210" y1="12" x2="225" y2="11"/><line x1="270" y1="4" x2="288" y2="6"/>
    <line x1="320" y1="18" x2="340" y2="17"/><line x1="365" y1="9" x2="385" y2="11"/>
    <line x1="30" y1="45" x2="48" y2="44"/><line x1="80" y1="52" x2="95" y2="50"/>
    <line x1="135" y1="38" x2="152" y2="40"/><line x1="190" y1="55" x2="205" y2="53"/>
    <line x1="245" y1="42" x2="262" y2="44"/><line x1="310" y1="48" x2="328" y2="46"/>
    <line x1="360" y1="35" x2="378" y2="37"/><line x1="15" y1="82" x2="32" y2="80"/>
    <line x1="65" y1="90" x2="82" y2="88"/><line x1="120" y1="78" x2="138" y2="80"/>
    <line x1="175" y1="95" x2="190" y2="93"/><line x1="230" y1="85" x2="248" y2="87"/>
    <line x1="285" y1="75" x2="300" y2="77"/><line x1="340" y1="92" x2="358" y2="90"/>
    <line x1="20" y1="125" x2="38" y2="123"/><line x1="75" y1="118" x2="90" y2="120"/>
    <line x1="140" y1="130" x2="155" y2="128"/><line x1="200" y1="122" x2="218" y2="124"/>
    <line x1="260" y1="135" x2="275" y2="133"/><line x1="325" y1="120" x2="342" y2="122"/>
    <line x1="375" y1="132" x2="395" y2="130"/><line x1="10" y1="165" x2="25" y2="163"/>
    <line x1="58" y1="170" x2="75" y2="168"/><line x1="115" y1="158" x2="132" y2="160"/>
    <line x1="180" y1="172" x2="195" y2="170"/><line x1="240" y1="162" x2="258" y2="164"/>
    <line x1="300" y1="175" x2="315" y2="173"/><line x1="355" y1="160" x2="372" y2="162"/>
    <line x1="25" y1="205" x2="42" y2="203"/><line x1="85" y1="212" x2="100" y2="210"/>
    <line x1="148" y1="198" x2="165" y2="200"/><line x1="210" y1="215" x2="225" y2="213"/>
    <line x1="268" y1="202" x2="285" y2="204"/><line x1="330" y1="210" x2="348" y2="208"/>
    <line x1="380" y1="200" x2="398" y2="202"/><line x1="18" y1="245" x2="35" y2="243"/>
    <line x1="70" y1="252" x2="85" y2="250"/><line x1="130" y1="240" x2="145" y2="242"/>
    <line x1="195" y1="255" x2="210" y2="253"/><line x1="250" y1="242" x2="268" y2="244"/>
    <line x1="315" y1="250" x2="330" y2="248"/><line x1="370" y1="238" x2="388" y2="240"/>
    <line x1="35" y1="285" x2="50" y2="283"/><line x1="90" y1="290" x2="108" y2="288"/>
    <line x1="155" y1="280" x2="170" y2="282"/><line x1="220" y1="292" x2="235" y2="290"/>
    <line x1="275" y1="282" x2="292" y2="284"/><line x1="340" y1="288" x2="355" y2="286"/>
    <line x1="12" y1="325" x2="28" y2="323"/><line x1="65" y1="330" x2="82" y2="328"/>
    <line x1="125" y1="320" x2="140" y2="322"/><line x1="185" y1="335" x2="200" y2="333"/>
    <line x1="242" y1="322" x2="258" y2="324"/><line x1="305" y1="332" x2="322" y2="330"/>
    <line x1="365" y1="318" x2="380" y2="320"/><line x1="40" y1="365" x2="55" y2="363"/>
    <line x1="98" y1="372" x2="115" y2="370"/><line x1="160" y1="360" x2="175" y2="362"/>
    <line x1="225" y1="375" x2="240" y2="373"/><line x1="280" y1="362" x2="298" y2="364"/>
    <line x1="345" y1="370" x2="360" y2="368"/><line x1="388" y1="358" x2="400" y2="360"/>
  </g>
  <!-- Graphite specks - dark scattered dots -->
  <g fill="#555">
    <circle cx="23" cy="14" r="0.8" opacity="0.3"/><circle cx="67" cy="28" r="0.6" opacity="0.25"/>
    <circle cx="112" cy="7" r="0.9" opacity="0.35"/><circle cx="156" cy="42" r="0.5" opacity="0.2"/>
    <circle cx="198" cy="19" r="0.7" opacity="0.3"/><circle cx="243" cy="35" r="0.8" opacity="0.25"/>
    <circle cx="289" cy="11" r="0.6" opacity="0.35"/><circle cx="334" cy="48" r="0.9" opacity="0.2"/>
    <circle cx="378" cy="22" r="0.7" opacity="0.3"/><circle cx="45" cy="63" r="0.8" opacity="0.25"/>
    <circle cx="89" cy="71" r="0.6" opacity="0.35"/><circle cx="134" cy="58" r="0.9" opacity="0.2"/>
    <circle cx="178" cy="82" r="0.5" opacity="0.3"/><circle cx="223" cy="67" r="0.8" opacity="0.25"/>
    <circle cx="267" cy="76" r="0.7" opacity="0.35"/><circle cx="312" cy="59" r="0.6" opacity="0.2"/>
    <circle cx="356" cy="85" r="0.9" opacity="0.3"/><circle cx="15" cy="108" r="0.7" opacity="0.25"/>
    <circle cx="58" cy="95" r="0.8" opacity="0.35"/><circle cx="101" cy="115" r="0.6" opacity="0.2"/>
    <circle cx="145" cy="102" r="0.9" opacity="0.3"/><circle cx="188" cy="118" r="0.5" opacity="0.25"/>
    <circle cx="232" cy="98" r="0.8" opacity="0.35"/><circle cx="275" cy="112" r="0.7" opacity="0.2"/>
    <circle cx="318" cy="105" r="0.6" opacity="0.3"/><circle cx="362" cy="120" r="0.9" opacity="0.25"/>
    <circle cx="34" cy="142" r="0.7" opacity="0.35"/><circle cx="78" cy="155" r="0.8" opacity="0.2"/>
    <circle cx="122" cy="138" r="0.6" opacity="0.3"/><circle cx="165" cy="152" r="0.9" opacity="0.25"/>
    <circle cx="208" cy="145" r="0.5" opacity="0.35"/><circle cx="252" cy="160" r="0.8" opacity="0.2"/>
    <circle cx="295" cy="148" r="0.7" opacity="0.3"/><circle cx="338" cy="158" r="0.6" opacity="0.25"/>
    <circle cx="382" cy="140" r="0.9" opacity="0.35"/><circle cx="18" cy="178" r="0.8" opacity="0.2"/>
    <circle cx="62" cy="192" r="0.6" opacity="0.3"/><circle cx="105" cy="182" r="0.9" opacity="0.25"/>
    <circle cx="148" cy="195" r="0.7" opacity="0.35"/><circle cx="192" cy="175" r="0.5" opacity="0.2"/>
    <circle cx="235" cy="188" r="0.8" opacity="0.3"/><circle cx="278" cy="198" r="0.6" opacity="0.25"/>
    <circle cx="322" cy="180" r="0.9" opacity="0.35"/><circle cx="365" cy="192" r="0.7" opacity="0.2"/>
    <circle cx="42" cy="215" r="0.8" opacity="0.3"/><circle cx="85" cy="228" r="0.6" opacity="0.25"/>
    <circle cx="128" cy="218" r="0.9" opacity="0.35"/><circle cx="172" cy="232" r="0.5" opacity="0.2"/>
    <circle cx="215" cy="222" r="0.7" opacity="0.3"/><circle cx="258" cy="235" r="0.8" opacity="0.25"/>
    <circle cx="302" cy="212" r="0.6" opacity="0.35"/><circle cx="345" cy="228" r="0.9" opacity="0.2"/>
    <circle cx="388" cy="220" r="0.7" opacity="0.3"/><circle cx="25" cy="255" r="0.8" opacity="0.25"/>
    <circle cx="68" cy="262" r="0.6" opacity="0.35"/><circle cx="112" cy="248" r="0.9" opacity="0.2"/>
    <circle cx="155" cy="268" r="0.5" opacity="0.3"/><circle cx="198" cy="252" r="0.8" opacity="0.25"/>
    <circle cx="242" cy="265" r="0.7" opacity="0.35"/><circle cx="285" cy="255" r="0.6" opacity="0.2"/>
    <circle cx="328" cy="270" r="0.9" opacity="0.3"/><circle cx="372" cy="250" r="0.7" opacity="0.25"/>
    <circle cx="38" cy="295" r="0.8" opacity="0.35"/><circle cx="82" cy="285" r="0.6" opacity="0.2"/>
    <circle cx="125" cy="302" r="0.9" opacity="0.3"/><circle cx="168" cy="288" r="0.5" opacity="0.25"/>
    <circle cx="212" cy="298" r="0.8" opacity="0.35"/><circle cx="255" cy="310" r="0.7" opacity="0.2"/>
    <circle cx="298" cy="292" r="0.6" opacity="0.3"/><circle cx="342" cy="305" r="0.9" opacity="0.25"/>
    <circle cx="385" cy="290" r="0.7" opacity="0.35"/><circle cx="15" cy="332" r="0.8" opacity="0.2"/>
    <circle cx="58" cy="342" r="0.6" opacity="0.3"/><circle cx="102" cy="328" r="0.9" opacity="0.25"/>
    <circle cx="145" cy="345" r="0.5" opacity="0.35"/><circle cx="188" cy="335" r="0.8" opacity="0.2"/>
    <circle cx="232" cy="348" r="0.7" opacity="0.3"/><circle cx="275" cy="330" r="0.6" opacity="0.25"/>
    <circle cx="318" cy="342" r="0.9" opacity="0.35"/><circle cx="362" cy="338" r="0.7" opacity="0.2"/>
    <circle cx="32" cy="372" r="0.8" opacity="0.3"/><circle cx="75" cy="385" r="0.6" opacity="0.25"/>
    <circle cx="118" cy="368" r="0.9" opacity="0.35"/><circle cx="162" cy="382" r="0.5" opacity="0.2"/>
    <circle cx="205" cy="375" r="0.8" opacity="0.3"/><circle cx="248" cy="390" r="0.7" opacity="0.25"/>
    <circle cx="292" cy="370" r="0.6" opacity="0.35"/><circle cx="335" cy="385" r="0.9" opacity="0.2"/>
    <circle cx="378" cy="375" r="0.7" opacity="0.3"/>
  </g>
  <!-- Larger smudge marks -->
  <g fill="#888" opacity="0.08">
    <ellipse cx="85" cy="72" rx="12" ry="3" transform="rotate(-5 85 72)"/>
    <ellipse cx="310" cy="145" rx="10" ry="2.5" transform="rotate(3 310 145)"/>
    <ellipse cx="195" cy="260" rx="14" ry="3" transform="rotate(-2 195 260)"/>
    <ellipse cx="55" cy="340" rx="11" ry="2.5" transform="rotate(4 55 340)"/>
    <ellipse cx="350" cy="310" rx="13" ry="3" transform="rotate(-3 350 310)"/>
    <ellipse cx="240" cy="55" rx="10" ry="2" transform="rotate(2 240 55)"/>
    <ellipse cx="140" cy="195" rx="12" ry="2.5" transform="rotate(-4 140 195)"/>
    <ellipse cx="370" cy="225" rx="9" ry="2" transform="rotate(5 370 225)"/>
  </g>
</svg>
